<?xml version="1.0" encoding="utf-8"?>
<!-- Generator: Adobe Illustrator 19.0.0, SVG Export Plug-In . SVG Version: 6.00 Build 0)  -->
<svg version="1.1" id="Calque_1" xmlns="http://www.w3.org/2000/svg" xmlns:xlink="http://www.w3.org/1999/xlink" x="0px" y="0px"
	 viewBox="175 -2.2 649.4 304.2" style="enable-background:new 175 -2.2 649.4 304.2;" xml:space="preserve">
<style type="text/css">
	.st0{fill:#FFFFFF;}
</style>
<title>Cerbo</title>
<path class="st0" d="M389.9,168.1c-3.6,10.1-9.4,17.7-17.6,22.5c-8.2,4.9-18,7.4-29.6,7.5c-9.5,0.2-18.9-2-27.3-6.4
	c-7.8-4.1-14.2-10.3-18.6-18c-8.8-16.5-8.9-36.2-0.2-52.8c4.3-7.6,10.6-13.8,18.2-18c8.3-4.4,17.6-6.7,27-6.5
	c6.7-0.1,13.3,1.2,19.4,3.8c5.4,2.3,10.1,6,13.5,10.7V98.3h12.8v31.1l-11.2,0.2c-3.5-6.9-7.8-12-13-15.2c-5.2-3.2-11.5-4.8-19-4.8
	c-6.6-0.2-13.2,1.5-18.9,4.9c-5.3,3.2-9.6,7.9-12.5,13.4c-3,5.9-4.5,12.5-4.4,19.2c-0.1,6.9,1.4,13.8,4.6,20
	c2.8,5.5,7.1,10.2,12.4,13.4c5.5,3.2,11.8,4.9,18.1,4.8c7.1,0.2,14-1.8,19.9-5.7c5.7-3.8,9.8-9.5,12.3-17.2L389.9,168.1z"/>
<path class="st0" d="M544,130.3l-3.6,14.2c-3.8-2.4-8.1-3.7-12.6-3.8c-4.1-0.1-8.1,1.7-10.7,4.9c-2.9,3.3-4.3,7.8-4.3,13.5
	l-0.2,26.4h11.4v10.7h-39.6v-10.7h11.9v-46.8h-11.9V128h28.1v12.6c3.9-9.1,9.8-13.6,17.8-13.6C535.1,127.1,539.7,128.2,544,130.3z"
	/>
<path class="st0" d="M617.8,130.5c5,2.8,9,7,11.6,12.1c2.9,5.8,4.4,12.2,4.2,18.7c0.2,6.8-1.4,13.6-4.6,19.6
	c-2.8,5.4-7.2,9.8-12.4,12.8c-5.3,3-11.3,4.5-17.4,4.4c-7.7,0.2-15.2-2.4-21.1-7.3l-0.2,5.5h-27.3v-10.8h11.6v-78.2h-11.2V96.6h27.5
	v37.5c3.3-2.4,6.9-4.4,10.8-5.7c3.8-1.4,7.8-2.1,11.8-2.1C607,126.2,612.7,127.7,617.8,130.5z M610.7,179.7c4-4.1,6-10,6-17.4
	s-1.9-13.2-5.8-17.2c-3.9-4.2-9.4-6.5-15.1-6.3c-6.4,0-12.5,2.4-17.2,6.6v34.6c4.7,3.8,10.5,5.9,16.6,6
	C601,186.1,606.6,183.9,610.7,179.7L610.7,179.7L610.7,179.7z"/>
<path class="st0" d="M468.5,175.9c-3.3,3.1-7.1,5.6-11.3,7.4c-4.2,1.8-8.7,2.7-13.2,2.7c-3.3,0-6.5-0.6-9.6-1.8l0.6-0.6l18.3-18.3
	l11.6-11.6l7.3-7.3c-1.4-3.9-3.6-7.5-6.4-10.5c-0.5-0.5-1-0.9-1.4-1.4c-5.8-5.5-13.5-8.3-23.3-8.3c-6.5-0.1-12.9,1.5-18.6,4.5
	c-5.5,2.9-10,7.3-13.1,12.7c-3.2,5.8-4.9,12.3-4.8,18.9c-0.1,6.6,1.6,13.2,5,18.9c3.3,5.4,8.1,9.9,13.8,12.7
	c6.2,3.1,13,4.6,19.9,4.5c5.9,0.1,11.8-1.1,17.2-3.5c4.9-2.2,9.4-5.3,13.2-9.1L468.5,175.9z M424,174.8l-0.6,0.6
	c-8-10.4-6-25.4,4.4-33.4c8.5-6.6,20.4-6.6,29,0l-1.7,1.7l-12.7,12.7l-8.8,8.8L424,174.8z"/>
<path class="st0" d="M711.4,143.3c-3.1-5.4-7.6-9.8-13.1-12.6c-6-3.1-12.7-4.6-19.5-4.5c-6.8-0.1-13.4,1.4-19.4,4.5
	c-5.5,2.9-10,7.2-13,12.6c-3.2,5.8-4.9,12.3-4.7,18.9c-0.1,6.6,1.5,13.2,4.7,19c3,5.4,7.5,9.9,13,12.8c12.3,6,26.7,6,39-0.1
	c5.5-2.9,10.1-7.4,13.1-12.9c3.2-5.8,4.8-12.4,4.7-19C716.2,155.4,714.6,149,711.4,143.3z M703.4,172.5c-0.4,0.3-0.7,0.8-0.6,1.4
	c0.8,4.1-1.6,8.2-5.6,9.6c-0.3,0.1-0.6,0.4-0.8,0.7c-1.4,3-4.4,4.9-7.7,4.9c-2.8,0-5.9-1-7.6-3.4c-0.5-0.7-0.8-1.4-1-2.2v-39.2
	c0-0.1,0-0.2,0-0.2c0,0,0-0.1,0-0.2v-0.1c0-4.7,3.8-8.5,8.5-8.5c3,0,5.8,1.6,7.4,4.2c0.2,0.3,0.5,0.6,0.9,0.6
	c5.4,1.2,9.3,6,9.4,11.6c0,0.3,0.1,0.6,0.3,0.8c1.8,2.4,2.8,5.4,2.8,8.5C709.5,165.6,707.2,169.9,703.4,172.5z M668.9,189.3
	c-3.3,0-6.3-1.9-7.7-4.9c-0.2-0.3-0.4-0.6-0.8-0.7c-4-1.4-6.3-5.5-5.6-9.6c0.1-0.5-0.1-1.1-0.6-1.4c-3.8-2.6-6.1-7-6.1-11.6
	c0-3.1,1-6,2.8-8.5c0.2-0.2,0.3-0.5,0.3-0.8c0.1-5.5,4-10.3,9.4-11.6c0.4-0.1,0.7-0.3,0.9-0.6c2.4-4.1,7.6-5.4,11.6-3
	c1,0.6,1.9,1.4,2.6,2.3c1.1,1.5,1.7,3.2,1.7,5v0.1c0,0,0,0.1,0,0.2c0,0.1,0,0.2,0,0.2v39.2c-0.2,0.7-0.4,1.4-0.8,2
	C675,188.3,671.7,189.3,668.9,189.3L668.9,189.3L668.9,189.3L668.9,189.3z"/>
<path class="st0" d="M662.7,154.5c-0.1,0.7,0.4,1.4,1.2,1.5c0,0,0,0,0,0h0.1c0.7,0,1.3-0.5,1.4-1.2c0.4-3.3,3.4-5.7,6.7-5.3
	c0.8,0.1,1.4-0.4,1.5-1.2c0.1-0.8-0.4-1.4-1.2-1.5c-1.2-0.1-2.4,0-3.6,0.3c1.1-1.6,1.7-3.3,2-5.2c0.1-0.7-0.3-1.3-1-1.5
	c-0.1,0-0.1-0.1-0.2-0.1c-0.6-0.1-1.2,0.3-1.4,0.9c-0.1,0.1-0.1,0.2-0.1,0.3c-0.6,4.9-5.1,8.5-10,7.9c-0.8-0.1-1.4,0.4-1.5,1.2
	c-0.1,0.8,0.4,1.4,1.2,1.5c0.5,0.1,0.9,0.1,1.4,0.1h0.1c1.5,0,3.1-0.3,4.5-0.9C663.1,152.3,662.8,153.4,662.7,154.5z"/>
<path class="st0" d="M674.6,176.7c-1.5-0.9-3.3-1.3-5-1.2c0-0.3,0-0.6,0-0.9c-0.1-1.3-0.7-2.4-1.7-3.3c-0.6-0.5-1.4-0.4-1.9,0.2
	s-0.4,1.4,0.2,1.9c0.4,0.3,0.7,0.8,0.7,1.4c0,0.5-0.1,1-0.4,1.4c-1.3,0.6-2.5,1.4-3.4,2.5c-0.4,0.4-0.7,0.9-1,1.5
	c-0.4,0.7-0.1,1.5,0.5,1.9c0.7,0.4,1.5,0.1,1.9-0.5c0.2-0.3,0.4-0.5,0.6-0.8c2-2.5,5.5-3.3,8.3-1.7c0.7,0.4,1.5,0.1,1.9-0.5
	C675.5,177.9,675.2,177,674.6,176.7L674.6,176.7z"/>
<path class="st0" d="M655.9,165.8c-2-1.1-2.6-3.6-1.6-5.6c0.4-0.7,0.1-1.5-0.5-1.9c-0.7-0.4-1.5-0.1-1.9,0.5l0,0
	c-1.8,3.3-0.7,7.4,2.6,9.3c0.7,0.4,1.5,0.1,1.9-0.5C656.8,167,656.6,166.2,655.9,165.8L655.9,165.8L655.9,165.8z"/>
<path class="st0" d="M699.6,149.3c-2.4,0.3-4.8-0.4-6.7-1.9c-1.9-1.5-3.1-3.6-3.4-6l0,0c-0.1-0.8-0.7-1.3-1.5-1.2c0,0,0,0,0,0
	c-0.2,0-0.4,0.1-0.6,0.2c-0.5,0.3-0.7,0.8-0.7,1.3c0.2,1.9,0.9,3.7,1.9,5.2c-1.2-0.4-2.4-0.5-3.6-0.3c-0.8,0.1-1.3,0.8-1.2,1.5
	s0.8,1.3,1.5,1.2l0,0c3.3-0.4,6.3,2,6.7,5.3c0.1,0.7,0.7,1.2,1.4,1.2h0.2c0.8-0.1,1.3-0.7,1.2-1.5c0,0,0,0,0,0
	c-0.1-1.1-0.5-2.1-1-3.1c1.4,0.6,3,0.9,4.5,0.9l0,0c0.5,0,0.9,0,1.4-0.1c0.8-0.1,1.3-0.8,1.2-1.5S700.3,149.2,699.6,149.3
	L699.6,149.3L699.6,149.3z"/>
<path class="st0" d="M694.8,178.7c-1.3-1.5-3-2.6-4.9-3.1c-0.1-0.3-0.2-0.6-0.2-1c0-0.5,0.3-1,0.7-1.4c0.6-0.5,0.7-1.3,0.2-1.9
	s-1.3-0.7-1.9-0.2c-1,0.8-1.6,2-1.7,3.3c0,0.3,0,0.6,0,0.9c-1.4,0.1-2.7,0.5-3.9,1.2c-0.7,0.4-0.9,1.2-0.5,1.9
	c0.4,0.7,1.2,0.9,1.9,0.5l0,0c1.2-0.7,2.5-0.9,3.9-0.8c0.3,0.3,0.8,0.4,1.2,0.3c1.3,0.4,2.5,1.3,3.3,2.5c0.2,0.2,0.3,0.4,0.4,0.6
	c0.4,0.7,1.2,0.9,1.9,0.5c0.7-0.4,0.9-1.2,0.5-1.9C695.4,179.6,695.1,179.1,694.8,178.7z"/>
<path class="st0" d="M703.7,158.2c-0.7,0.4-0.9,1.2-0.5,1.9c1.1,2,0.4,4.4-1.6,5.6c-0.7,0.4-0.9,1.2-0.5,1.9s1.2,0.9,1.9,0.5
	c3.3-1.9,4.4-6,2.6-9.3C705.2,158.1,704.4,157.8,703.7,158.2z"/>
</svg>
